HIERARCHY
ROOT mixamorig:Hips
{
	OFFSET 0.000000 35.069874 -0.029489
	CHANNELS 6 Xposition Yposition Zposition Zrotation Yrotation Xrotation 
	JOINT mixamorig:Spine
	{
		OFFSET -0.000000 6.876057 0.125662
		CHANNELS 3 Zrotation Yrotation Xrotation
		JOINT mixamorig:Spine1
		{
			OFFSET 0.000000 8.022058 0.146603
			CHANNELS 3 Zrotation Yrotation Xrotation
			JOINT mixamorig:Spine2
			{
				OFFSET 0.000000 9.168076 0.167547
				CHANNELS 3 Zrotation Yrotation Xrotation
				JOINT mixamorig:Neck
				{
					OFFSET 0.000000 10.314070 0.188489
					CHANNELS 3 Zrotation Yrotation Xrotation
					JOINT mixamorig:Head
					{
						OFFSET -0.000000 7.643749 -2.377445
						CHANNELS 3 Zrotation Yrotation Xrotation
						JOINT mixamorig:HeadTop_End
						{
							OFFSET 0.000000 43.788605 -13.619637
							CHANNELS 3 Zrotation Yrotation Xrotation
							End Site
							{
								OFFSET 0.000000 0.000000 0.000000
							}
						}
					}
				}
				JOINT mixamorig:LeftShoulder
				{
					OFFSET 4.392187 8.824999 0.174995
					CHANNELS 3 Zrotation Yrotation Xrotation
					JOINT mixamorig:LeftArm
					{
						OFFSET 8.774866 -2.970879 -0.026997
						CHANNELS 3 Zrotation Yrotation Xrotation
						JOINT mixamorig:LeftForeArm
						{
							OFFSET 8.450586 -0.797431 -0.648343
							CHANNELS 3 Zrotation Yrotation Xrotation
							JOINT mixamorig:LeftHand
							{
								OFFSET 18.458662 0.962311 0.193148
								CHANNELS 3 Zrotation Yrotation Xrotation
								JOINT mixamorig:LeftHandThumb1
								{
									OFFSET 2.379990 -1.333382 2.680594
									CHANNELS 3 Zrotation Yrotation Xrotation
									JOINT mixamorig:LeftHandThumb2
									{
										OFFSET 1.903984 -1.066746 2.144473
										CHANNELS 3 Zrotation Yrotation Xrotation
										JOINT mixamorig:LeftHandThumb3
										{
											OFFSET 0.966393 -1.489639 2.964555
											CHANNELS 3 Zrotation Yrotation Xrotation
											JOINT mixamorig:LeftHandThumb4
											{
												OFFSET 1.205181 -0.823021 1.625701
												CHANNELS 3 Zrotation Yrotation Xrotation
												End Site
												{
													OFFSET 0.000000 0.000000 0.000000
												}
											}
										}
									}
								}
								JOINT mixamorig:LeftHandIndex1
								{
									OFFSET 7.830624 -0.787468 2.563931
									CHANNELS 3 Zrotation Yrotation Xrotation
									JOINT mixamorig:LeftHandIndex2
									{
										OFFSET 3.312897 -0.052605 1.515312
										CHANNELS 3 Zrotation Yrotation Xrotation
										JOINT mixamorig:LeftHandIndex3
										{
											OFFSET 3.460667 -0.207008 1.581951
											CHANNELS 3 Zrotation Yrotation Xrotation
											JOINT mixamorig:LeftHandIndex4
											{
												OFFSET 2.183182 0.110458 0.999585
												CHANNELS 3 Zrotation Yrotation Xrotation
												End Site
												{
													OFFSET 0.000000 0.000000 0.000000
												}
											}
										}
									}
								}
								JOINT mixamorig:LeftHandMiddle1
								{
									OFFSET 8.556145 -0.261200 0.258753
									CHANNELS 3 Zrotation Yrotation Xrotation
									JOINT mixamorig:LeftHandMiddle2
									{
										OFFSET 3.828903 -0.489014 -0.111505
										CHANNELS 3 Zrotation Yrotation Xrotation
										JOINT mixamorig:LeftHandMiddle3
										{
											OFFSET 3.696209 -0.166595 -0.107596
											CHANNELS 3 Zrotation Yrotation Xrotation
											JOINT mixamorig:LeftHandMiddle4
											{
												OFFSET 2.259281 0.534500 -0.065675
												CHANNELS 3 Zrotation Yrotation Xrotation
												End Site
												{
													OFFSET 0.000000 0.000000 0.000000
												}
											}
										}
									}
								}
								JOINT mixamorig:LeftHandRing1
								{
									OFFSET 8.509293 -0.556679 -3.044941
									CHANNELS 3 Zrotation Yrotation Xrotation
									JOINT mixamorig:LeftHandRing2
									{
										OFFSET 2.995171 -0.303261 -0.843591
										CHANNELS 3 Zrotation Yrotation Xrotation
										JOINT mixamorig:LeftHandRing3
										{
											OFFSET 2.968273 -0.101997 -0.834287
											CHANNELS 3 Zrotation Yrotation Xrotation
											JOINT mixamorig:LeftHandRing4
											{
												OFFSET 1.521358 -0.461468 -0.418735
												CHANNELS 3 Zrotation Yrotation Xrotation
												End Site
												{
													OFFSET 0.000000 0.000000 0.000000
												}
											}
										}
									}
								}
							}
						}
					}
				}
				JOINT mixamorig:RightShoulder
				{
					OFFSET -4.392150 8.825028 0.141388
					CHANNELS 3 Zrotation Yrotation Xrotation
					JOINT mixamorig:RightArm
					{
						OFFSET -8.774886 -2.970952 -0.094209
						CHANNELS 3 Zrotation Yrotation Xrotation
						JOINT mixamorig:RightForeArm
						{
							OFFSET -8.450587 -0.797390 -0.330665
							CHANNELS 3 Zrotation Yrotation Xrotation
							JOINT mixamorig:RightHand
							{
								OFFSET -18.458664 0.962341 0.025779
								CHANNELS 3 Zrotation Yrotation Xrotation
								JOINT mixamorig:RightHandThumb1
								{
									OFFSET -2.390282 -1.240040 2.604684
									CHANNELS 3 Zrotation Yrotation Xrotation
									JOINT mixamorig:RightHandThumb2
									{
										OFFSET -1.912228 -0.992111 2.083740
										CHANNELS 3 Zrotation Yrotation Xrotation
										JOINT mixamorig:RightHandThumb3
										{
											OFFSET -0.876358 -1.555370 2.930126
											CHANNELS 3 Zrotation Yrotation Xrotation
											JOINT mixamorig:RightHandThumb4
											{
												OFFSET -1.227077 -0.755932 1.835223
												CHANNELS 3 Zrotation Yrotation Xrotation
												End Site
												{
													OFFSET 0.000000 0.000000 0.000000
												}
											}
										}
									}
								}
								JOINT mixamorig:RightHandIndex1
								{
									OFFSET -8.716801 -0.633743 3.098187
									CHANNELS 3 Zrotation Yrotation Xrotation
									JOINT mixamorig:RightHandIndex2
									{
										OFFSET -3.319706 -0.240585 1.198087
										CHANNELS 3 Zrotation Yrotation Xrotation
										JOINT mixamorig:RightHandIndex3
										{
											OFFSET -3.153255 -0.154724 1.138827
											CHANNELS 3 Zrotation Yrotation Xrotation
											JOINT mixamorig:RightHandIndex4
											{
												OFFSET -1.818684 -0.003197 0.655154
												CHANNELS 3 Zrotation Yrotation Xrotation
												End Site
												{
													OFFSET 0.000000 0.000000 0.000000
												}
											}
										}
									}
								}
								JOINT mixamorig:RightHandMiddle1
								{
									OFFSET -8.158691 -0.528496 0.196552
									CHANNELS 3 Zrotation Yrotation Xrotation
									JOINT mixamorig:RightHandMiddle2
									{
										OFFSET -3.890194 -0.261169 -0.136423
										CHANNELS 3 Zrotation Yrotation Xrotation
										JOINT mixamorig:RightHandMiddle3
										{
											OFFSET -3.903057 -0.179909 -0.137173
											CHANNELS 3 Zrotation Yrotation Xrotation
											JOINT mixamorig:RightHandMiddle4
											{
												OFFSET -2.366261 0.198380 -0.083987
												CHANNELS 3 Zrotation Yrotation Xrotation
												End Site
												{
													OFFSET 0.000000 0.000000 0.000000
												}
											}
										}
									}
								}
								JOINT mixamorig:RightHandRing1
								{
									OFFSET -7.616104 -0.395126 -2.681268
									CHANNELS 3 Zrotation Yrotation Xrotation
									JOINT mixamorig:RightHandRing2
									{
										OFFSET -3.235790 -0.462120 -1.101476
										CHANNELS 3 Zrotation Yrotation Xrotation
										JOINT mixamorig:RightHandRing3
										{
											OFFSET -3.179264 -0.138618 -1.084847
											CHANNELS 3 Zrotation Yrotation Xrotation
											JOINT mixamorig:RightHandRing4
											{
												OFFSET -1.963291 -0.101624 -0.668250
												CHANNELS 3 Zrotation Yrotation Xrotation
												End Site
												{
													OFFSET 0.000000 0.000000 0.000000
												}
											}
										}
									}
								}
							}
						}
					}
				}
			}
		}
	}
	JOINT mixamorig:LeftUpLeg
	{
		OFFSET 10.205382 -3.823522 0.155145
		CHANNELS 3 Zrotation Yrotation Xrotation
		JOINT mixamorig:LeftLeg
		{
			OFFSET 0.283732 -12.998343 0.567794
			CHANNELS 3 Zrotation Yrotation Xrotation
			JOINT mixamorig:LeftFoot
			{
				OFFSET -1.058953 -10.688870 -2.184322
				CHANNELS 3 Zrotation Yrotation Xrotation
				JOINT mixamorig:LeftToeBase
				{
					OFFSET 0.108145 -7.191069 7.560211
					CHANNELS 3 Zrotation Yrotation Xrotation
					JOINT mixamorig:LeftToe_End
					{
						OFFSET 0.070226 0.081726 4.490266
						CHANNELS 3 Zrotation Yrotation Xrotation
						End Site
						{
							OFFSET 0.000000 0.000000 0.000000
						}
					}
				}
			}
		}
	}
	JOINT mixamorig:RightUpLeg
	{
		OFFSET -10.205383 -3.823510 0.005508
		CHANNELS 3 Zrotation Yrotation Xrotation
		JOINT mixamorig:RightLeg
		{
			OFFSET -0.283728 -12.998341 0.610627
			CHANNELS 3 Zrotation Yrotation Xrotation
			JOINT mixamorig:RightFoot
			{
				OFFSET 1.058956 -10.688893 -1.945833
				CHANNELS 3 Zrotation Yrotation Xrotation
				JOINT mixamorig:RightToeBase
				{
					OFFSET -0.108151 -7.191039 7.372945
					CHANNELS 3 Zrotation Yrotation Xrotation
					JOINT mixamorig:RightToe_End
					{
						OFFSET -0.070229 0.081738 4.479398
						CHANNELS 3 Zrotation Yrotation Xrotation
						End Site
						{
							OFFSET 0.000000 0.000000 0.000000
						}
					}
				}
			}
		}
	}
}
MOTION
Frames: 4
Frame Time: 0.016667
1.441169 33.742851 3.850661 -7.443021 -5.189552 0.920246 0.798661 -4.927208 3.424457 0.392131 -0.342748 2.513515 0.361578 -0.318023 2.500387 8.881034 -4.452406 0.505707 3.566124 -12.575555 -7.011089 0.000000 0.000000 0.000000 0.026146 -24.701291 2.714161 -9.889254 -49.636584 9.822070 -1.679154 -46.977748 -7.825610 -8.717457 -13.363972 12.553301 6.686131 5.607617 8.853078 -1.341043 61.965186 30.142984 -0.302889 37.891729 -5.602767 0.000002 -0.000004 0.000002 -80.152924 35.737930 -1.274826 -69.728998 26.347098 20.271834 -89.955845 34.881115 19.079055 -0.000000 0.000002 -0.000002 -68.313644 6.091776 -5.711683 -112.268262 6.108748 -11.951821 -87.901380 4.774103 -9.058414 -0.000002 -0.000001 0.000000 -73.668761 -10.389689 -7.939079 -93.467895 -7.261377 -25.220632 -44.322809 4.711386 -13.030221 -0.000004 0.000003 -0.000001 -12.444454 3.162735 -23.698084 -9.417307 13.912554 -23.092722 0.342838 29.783671 -0.027594 -37.232315 -7.789970 -42.258463 -3.886769 -2.862320 8.975388 -18.750003 -55.586230 21.854931 -3.475612 -24.805532 -4.385448 -0.000002 0.000000 0.000000 48.954322 -25.277097 5.286824 76.900823 -21.892126 16.843531 91.134685 -26.788734 15.877347 0.000002 0.000002 0.000000 73.089726 -3.696845 -5.132679 108.683160 -3.913203 -10.011974 51.104703 -3.543669 -3.724455 0.000001 -0.000000 0.000001 84.968137 14.791054 -9.254613 85.891491 9.298718 -26.475535 38.861973 -1.368851 -13.835968 0.000004 -0.000001 -0.000002 22.484940 18.295062 -15.217418 4.040561 5.760880 34.226026 -4.502982 0.646674 -6.839490 -1.737543 -0.073086 -3.876876 0.000000 0.000000 0.000000 -15.034350 -20.128718 -34.556632 -7.455736 -2.376295 61.883763 14.099738 -20.270504 15.630560 -0.000002 0.000003 3.854864 0.000000 -0.000001 0.000000 
0.777862 33.805744 3.975596 -6.423806 -4.133043 1.283143 -0.871046 -4.988017 2.618465 0.213479 -0.354368 1.923673 0.189575 -0.333914 1.908534 10.369057 -4.831952 0.698225 2.545233 -12.419282 -4.743221 0.000000 -0.000001 0.000000 -1.741778 -25.536514 2.962630 -7.624142 -45.862037 12.102211 -0.535983 -49.915720 -8.149750 -8.806082 -13.075097 9.097215 6.686135 5.607622 8.853058 -1.341014 61.965184 30.143020 -0.302876 37.891708 -5.602777 -0.000001 -0.000001 0.000001 -80.152972 35.737940 -1.274833 -69.729022 26.347094 20.271834 -89.955822 34.881105 19.079040 -0.000001 0.000000 0.000001 -68.313644 6.091778 -5.711687 -112.268248 6.108756 -11.951818 -87.901387 4.774096 -9.058418 0.000001 -0.000000 0.000003 -73.668760 -10.389699 -7.939055 -93.467864 -7.261382 -25.220640 -44.322805 4.711387 -13.030221 -0.000002 0.000000 0.000001 -11.747666 0.168271 -23.183898 -10.572592 24.461194 -9.072229 0.045116 10.757426 -0.031623 -29.540097 0.055241 -45.852317 -3.886761 -2.862326 8.975389 -18.750002 -55.586215 21.854912 -3.475613 -24.805541 -4.385465 0.000001 0.000001 0.000000 48.954344 -25.277106 5.286809 76.900773 -21.892112 16.843548 91.134714 -26.788744 15.877329 0.000000 0.000001 0.000001 73.089713 -3.696854 -5.132677 108.683173 -3.913192 -10.011954 51.104703 -3.543679 -3.724460 0.000001 -0.000001 0.000001 84.968152 14.791045 -9.254630 85.891491 9.298692 -26.475527 38.861973 -1.368840 -13.835960 -0.000001 -0.000004 -0.000003 19.811300 19.379096 -16.578070 3.083640 3.892044 37.124956 -7.332329 0.006624 -7.692490 -2.443521 -0.101260 -4.419539 0.000000 -0.000001 0.000000 -16.146434 -16.283990 -27.774651 -6.163393 -3.848307 48.344174 16.072656 -18.258618 19.234065 -0.000005 0.000010 2.290644 -0.000002 -0.000001 0.000002 
0.163479 33.797596 4.099937 -5.398680 -3.030310 1.637472 -2.377919 -5.074798 1.904657 0.095284 -0.371556 1.418194 0.077150 -0.353963 1.401942 11.428152 -5.086384 0.669211 1.639676 -12.175614 -2.713965 0.000000 0.000002 0.000000 -3.583108 -26.268610 3.225366 -5.951749 -43.365653 13.795294 0.530028 -52.638179 -8.504224 -9.125538 -12.789781 5.918195 6.686130 5.607621 8.853076 -1.341037 61.965184 30.142999 -0.302876 37.891723 -5.602753 -0.000002 0.000001 0.000002 -80.152922 35.737942 -1.274812 -69.728963 26.347074 20.271830 -89.955822 34.881108 19.079043 0.000001 0.000002 -0.000002 -68.313666 6.091786 -5.711697 -112.268269 6.108754 -11.951820 -87.901366 4.774095 -9.058424 -0.000001 0.000000 0.000000 -73.668768 -10.389689 -7.939067 -93.467882 -7.261381 -25.220643 -44.322806 4.711392 -13.030224 -0.000002 -0.000000 -0.000001 -11.194154 -2.579079 -22.672190 -7.840746 31.615244 5.144944 0.007147 0.130535 -0.012614 -23.322343 7.590983 -41.010242 -3.886764 -2.862310 8.975395 -18.749987 -55.586249 21.854902 -3.475639 -24.805532 -4.385470 -0.000000 -0.000001 0.000002 48.954334 -25.277098 5.286819 76.900787 -21.892106 16.843518 91.134707 -26.788751 15.877334 0.000000 0.000006 0.000000 73.089726 -3.696843 -5.132670 108.683173 -3.913193 -10.011960 51.104726 -3.543676 -3.724457 0.000000 0.000001 0.000000 84.968145 14.791052 -9.254626 85.891497 9.298705 -26.475533 38.861976 -1.368832 -13.835963 0.000001 -0.000004 -0.000000 16.742090 19.854082 -17.152638 2.014358 2.266715 38.837474 -10.063745 -0.031581 -8.831184 -1.917887 -0.080484 -3.989243 0.000000 0.000000 0.000000 -16.842500 -12.542559 -20.947753 -4.255842 -4.347602 34.270955 16.579048 -16.191399 21.709446 6.990904 0.116542 -6.583762 -0.000001 0.000004 -0.000000 
-0.381593 33.745644 4.206452 -4.577740 -1.872482 1.908209 -3.453801 -5.195803 1.339649 0.060829 -0.389579 1.063885 0.046420 -0.374036 1.047584 11.948671 -5.154109 0.468057 0.923936 -11.780568 -1.133153 0.000000 0.000001 0.000000 -6.577587 -27.676223 3.380708 -5.012013 -41.016302 15.036433 1.949739 -54.523286 -10.067631 -9.651718 -12.539567 3.592529 6.686133 5.607614 8.853078 -1.341030 61.965183 30.142992 -0.302872 37.891735 -5.602779 -0.000001 0.000001 -0.000002 -80.152922 35.737943 -1.274798 -69.728986 26.347080 20.271833 -89.955814 34.881096 19.079064 0.000000 0.000000 0.000004 -68.313665 6.091773 -5.711682 -112.268234 6.108757 -11.951825 -87.901366 4.774096 -9.058420 0.000000 0.000000 0.000000 -73.668767 -10.389693 -7.939049 -93.467864 -7.261374 -25.220641 -44.322792 4.711390 -13.030221 -0.000002 0.000002 0.000001 -10.690787 -4.954070 -22.375084 -4.477477 33.518004 17.397817 -0.003335 0.137777 -0.003119 -17.434174 12.945313 -29.105504 -3.886774 -2.862308 8.975387 -18.749996 -55.586231 21.854936 -3.475621 -24.805534 -4.385482 -0.000001 -0.000001 -0.000002 48.954334 -25.277095 5.286826 76.900793 -21.892116 16.843522 91.134685 -26.788741 15.877333 -0.000001 0.000001 -0.000000 73.089699 -3.696833 -5.132671 108.683187 -3.913194 -10.011965 51.104720 -3.543677 -3.724462 0.000001 -0.000004 0.000001 84.968144 14.791051 -9.254599 85.891484 9.298717 -26.475536 38.861982 -1.368849 -13.835966 0.000001 -0.000001 -0.000000 13.494303 19.687798 -16.909896 1.609819 1.581840 39.164828 -11.639565 0.784175 -10.383943 0.713474 0.032267 -5.939207 0.000000 -0.000001 0.000000 -16.973403 -9.380303 -13.708566 -2.547552 -4.091839 20.049372 15.555066 -14.268430 22.609973 7.810470 0.738323 -15.571976 0.000000 0.000000 0.000000 
